<?xml version="1.0" standalone="yes"?>
<svg xmlns="http://www.w3.org/2000/svg" width="329" height="339">
<path style="fill:#ffffff; stroke:none;" d="M188 25L189 26L188 25z"/>
<path style="fill:#f5b2c5; stroke:none;" d="M148 62C152.486 60.6518 154.328 56.3059 158.434 54.5031C163.265 52.3823 168.837 61.1165 169 65C174.024 65.4209 176.575 62.3993 180 58.9992C186.323 52.7223 197.967 44.8835 197.851 35C197.768 27.8739 190.211 24.3726 184 26.7423C180.394 28.1183 177.667 31.3475 175 34.0008L163 46C157.86 51.1398 152.193 56.0481 148 62z"/>
<path style="fill:#f8d8df; stroke:none;" d="M197.333 38.6667C197.278 38.7221 197.222 39.7778 197.667 39.3333C197.722 39.2777 197.778 38.2222 197.333 38.6667z"/>
<path style="fill:#f6b1c5; stroke:none;" d="M78 132L75 144C81.3718 148.227 70.8409 155.022 70 160L63 160C62.0829 164.923 60.5651 170.043 60.1042 175C59.7035 179.309 60.5924 183.831 59.1219 188C56.5772 195.215 49.6919 199.185 46.5177 206.004C41.2057 217.416 41.9989 233.697 43.1698 246C44.0437 255.183 44.5275 264.381 48.26 273C58.2897 296.16 86.3585 310.519 109 317.999C146.169 330.279 189.06 329.583 226 316.997C246.294 310.082 266.143 298.527 279.076 281C289.657 266.659 291 250.252 291 233C291 224.748 291.322 216.927 288.644 209C286.017 201.224 278.746 195.622 276.573 188C274.887 182.092 275.712 175.14 274.575 169C272.014 155.165 267.611 141.556 261.244 129C248.62 104.105 223.371 82.7597 197.015 73.8109C188.271 70.8423 180.35 68.001 171 68C170.594 65.9077 170.783 65.9802 169 65C170.164 61.1075 163.331 51.6261 158.389 53.6667C155.51 54.8555 153.645 58.1329 151.361 60.1111C149.428 61.7855 146.982 62.4926 145 64.1111C142.197 66.4003 140.062 69.5152 137 71.5C130.721 75.5698 122.581 77.4587 116 81.3889C105.072 87.915 97.4883 96.3761 89.6389 106.028C84.7312 112.062 81.034 118.808 76.8611 125.222C74.9579 128.148 74.1624 131.178 78 132z"/>
<path style="fill:#f0d0da; stroke:none;" d="M171 66C173.104 68.4089 175.906 67.9897 179 68C176.473 66.9079 173.698 66.6515 171 66z"/>
<path style="fill:#fdd3de; stroke:none;" d="M181 68C182.506 68.683 183.315 68.8259 185 69C183.494 68.317 182.685 68.1741 181 68z"/>
<path style="fill:#ecb8c8; stroke:none;" d="M182 69C192.398 73.9984 203.86 75.6765 213.965 81.8349C225.755 89.0211 234.735 99.3988 246 107C243.12 100.824 237.22 95.8966 232 91.6157C218.337 80.4113 200.228 69.1509 182 69z"/>
<path style="fill:#ffd7e3; stroke:none;" d="M134.667 72.3333C134.222 72.7778 135.278 72.7222 135.333 72.6667C135.778 72.2224 134.722 72.2777 134.667 72.3333z"/>
<path style="fill:#ffffff; stroke:none;" d="M208 76L209 77L208 76M223 85L224 86L223 85M101 92L102 93L101 92z"/>
<path style="fill:#a47a85; stroke:none;" d="M119 97L120 98L119 97z"/>
<path style="fill:#0f0000; stroke:none;" d="M120.314 98.0864C116.096 100.46 119.017 108.025 123.853 105.712C128.738 103.376 124.861 95.5284 120.314 98.0864z"/>
<path style="fill:#b38692; stroke:none;" d="M124 97L125 98L124 97z"/>
<path style="fill:#b28591; stroke:none;" d="M209 97L210 98L209 97z"/>
<path style="fill:#21020a; stroke:none;" d="M210 97C211.506 97.683 212.315 97.8259 214 98C212.494 97.317 211.685 97.1741 210 97z"/>
<path style="fill:#ad8891; stroke:none;" d="M214 97L215 98L214 97z"/>
<path style="fill:#f5b2c5; stroke:none;" d="M95 98C76.4394 116.952 66.776 139.74 60.2855 165C59.2038 169.21 58.2315 173.651 58.0394 178C57.9015 181.12 58.6014 184.87 57.3966 187.83C55.6953 192.01 50.9106 195.217 48.3596 199C42.777 207.279 41.0006 216.188 41 226C40.9993 236.791 40.9707 247.321 42.7546 258C43.4918 262.413 44.1402 267.358 48 270C42.1951 251.915 39.8366 228.566 45.375 210C47.8487 201.708 55.4165 197.665 58.7253 190C60.6522 185.537 59.6679 180.692 60.1042 176C60.6004 170.663 62.3216 165.363 63 160L70 160C70.6415 156.548 83.3275 145.785 75 144C76.5918 139.82 77.6417 136.489 78 132C73.7622 129.039 77.7598 125.332 79.6644 121.845C82.6963 116.294 86.3848 110.98 90.4244 106.09C92.5524 103.513 95.2938 101.467 95 98z"/>
<path style="fill:#714752; stroke:none;" d="M118 98L119 99L118 98z"/>
<path style="fill:#805460; stroke:none;" d="M125 98L126 99L125 98z"/>
<path style="fill:#72545b; stroke:none;" d="M208 98L209 99L208 98z"/>
<path style="fill:#000000; stroke:none;" d="M209.603 99.0324C205.607 102.125 210.615 107.699 214.667 104.968C219.052 102.013 213.421 96.078 209.603 99.0324z"/>
<path style="fill:#72545b; stroke:none;" d="M215 98L216 99L215 98z"/>
<path style="fill:#b78894; stroke:none;" d="M117 99L118 100L117 99z"/>
<path style="fill:#000500; stroke:none;" d="M124 105L125 100C119.134 98.8824 118.138 103.724 124 105z"/>
<path style="fill:#b0838f; stroke:none;" d="M126 99L127 100L126 99z"/>
<path style="fill:#af808c; stroke:none;" d="M207 99L208 100L207 99z"/>
<path style="fill:#a7808a; stroke:none;" d="M216 99L217 100L216 99z"/>
<path style="fill:#290610; stroke:none;" d="M117 100L117 104C117.71 102.24 117.71 101.759 117 100z"/>
<path style="fill:#503038; stroke:none;" d="M126 100L127 101L126 100z"/>
<path style="fill:#5e2f3c; stroke:none;" d="M207 100L208 101L207 100z"/>
<path style="fill:#57333c; stroke:none;" d="M216 100L217 101L216 100z"/>
<path style="fill:#350614; stroke:none;" d="M207 101L207 104C207.696 102.446 207.696 102.554 207 101z"/>
<path style="fill:#aa858e; stroke:none;" d="M117 104L118 105L117 104z"/>
<path style="fill:#aa808b; stroke:none;" d="M126 104L127 105L126 104z"/>
<path style="fill:#6c4c54; stroke:none;" d="M118 105L119 106L118 105z"/>
<path style="fill:#7f5560; stroke:none;" d="M125 105L126 106L125 105z"/>
<path style="fill:#6d545a; stroke:none;" d="M208 105L209 106L208 105z"/>
<path style="fill:#785860; stroke:none;" d="M215 105L216 106L215 105z"/>
<path style="fill:#604048; stroke:none;" d="M120 106L121 107L120 106z"/>
<path style="fill:#6d4650; stroke:none;" d="M123 106L124 107L123 106z"/>
<path style="fill:#64414a; stroke:none;" d="M210 106L211 107L210 106z"/>
<path style="fill:#2f0c16; stroke:none;" d="M211.667 106.333C211.222 106.778 212.278 106.722 212.333 106.667C212.778 106.222 211.722 106.278 211.667 106.333z"/>
<path style="fill:#65414a; stroke:none;" d="M213 106L214 107L213 106z"/>
<path style="fill:#f5d8e2; stroke:none;" d="M63.3333 152.667C63.2777 152.722 63.2222 153.778 63.6667 153.333C63.7222 153.278 63.7778 152.222 63.3333 152.667z"/>
<path style="fill:#fbd5dc; stroke:none;" d="M61 159L61 162C61.6961 160.446 61.6961 160.554 61 159z"/>
<path style="fill:#fad5e0; stroke:none;" d="M272 159L272 162C272.696 160.446 272.696 160.554 272 159z"/>
<path style="fill:#af7e8b; stroke:none;" d="M117.667 165.333C117.222 165.778 118.278 165.722 118.333 165.667C118.778 165.222 117.722 165.278 117.667 165.333z"/>
<path style="fill:#865c67; stroke:none;" d="M119 165C120.769 165.779 122.036 165.912 124 166C122.231 165.221 120.964 165.088 119 165z"/>
<path style="fill:#b48793; stroke:none;" d="M124.667 165.333C124.222 165.778 125.278 165.722 125.333 165.667C125.778 165.222 124.722 165.278 124.667 165.333z"/>
<path style="fill:#9d7982; stroke:none;" d="M208.667 165.333C208.222 165.778 209.278 165.722 209.333 165.667C209.778 165.222 208.722 165.278 208.667 165.333z"/>
<path style="fill:#815e67; stroke:none;" d="M210 165C211.506 165.683 212.315 165.826 214 166C212.494 165.317 211.685 165.174 210 165z"/>
<path style="fill:#aa808b; stroke:none;" d="M214 165C215.248 165.685 215.548 165.749 217 166C215.752 165.315 215.452 165.251 214 165z"/>
<path style="fill:#0c0000; stroke:none;" d="M116 166C120.567 169.46 128.445 168.627 134 170.71C139.497 172.771 143.395 177.442 149 179C143.352 167.171 127.416 166 116 166z"/>
<path style="fill:#714e57; stroke:none;" d="M129 166L130 167L129 166z"/>
<path style="fill:#72575e; stroke:none;" d="M204 166L205 167L204 166z"/>
<path style="fill:#0d0000; stroke:none;" d="M185 179C190.527 177.464 194.621 173 200 170.823C205.997 168.395 211.991 168.776 218 167C207.523 162.604 190.247 169.326 185 179z"/>
<path style="fill:#653e48; stroke:none;" d="M116 167L117 168L116 167z"/>
<path style="fill:#58343d; stroke:none;" d="M132 167L133 168L132 167z"/>
<path style="fill:#603943; stroke:none;" d="M201 167L202 168L201 167z"/>
<path style="fill:#69454e; stroke:none;" d="M217 167L218 168L217 167z"/>
<path style="fill:#6d414d; stroke:none;" d="M117 168C118.248 168.685 118.548 168.749 120 169C118.752 168.315 118.452 168.251 117 168z"/>
<path style="fill:#a18189; stroke:none;" d="M120 168C121.506 168.683 122.315 168.826 124 169C122.494 168.317 121.685 168.174 120 168z"/>
<path style="fill:#6f4c55; stroke:none;" d="M124 168C125.248 168.685 125.548 168.749 127 169C125.752 168.315 125.452 168.251 124 168z"/>
<path style="fill:#6b5057; stroke:none;" d="M135 168L136 169L135 168z"/>
<path style="fill:#704d56; stroke:none;" d="M198 168L199 169L198 168z"/>
<path style="fill:#5e3b44; stroke:none;" d="M206 168C207.248 168.685 207.548 168.749 209 169C207.752 168.315 207.452 168.251 206 168z"/>
<path style="fill:#a8818b; stroke:none;" d="M209 168C210.769 168.779 212.036 168.912 214 169C212.231 168.221 210.964 168.088 209 168z"/>
<path style="fill:#704450; stroke:none;" d="M214 168C215.248 168.685 215.548 168.749 217 169C215.752 168.315 215.452 168.251 214 168z"/>
<path style="fill:#9f7580; stroke:none;" d="M129 169L130 170L129 169z"/>
<path style="fill:#5f3f47; stroke:none;" d="M130 169L131 170L130 169z"/>
<path style="fill:#aa7986; stroke:none;" d="M138 169L139 170L138 169z"/>
<path style="fill:#b3808e; stroke:none;" d="M195 169L196 170L195 169z"/>
<path style="fill:#573e44; stroke:none;" d="M203 169L204 170L203 169z"/>
<path style="fill:#9e7a83; stroke:none;" d="M204 169L205 170L204 169z"/>
<path style="fill:#6e4e56; stroke:none;" d="M133 170L134 171L133 170z"/>
<path style="fill:#a37984; stroke:none;" d="M140 170L141 171L140 170z"/>
<path style="fill:#a08088; stroke:none;" d="M193 170L194 171L193 170z"/>
<path style="fill:#7b5b63; stroke:none;" d="M200 170L201 171L200 170z"/>
<path style="fill:#ae8791; stroke:none;" d="M201 170L202 171L201 170z"/>
<path style="fill:#997981; stroke:none;" d="M135 171L136 172L135 171z"/>
<path style="fill:#412a2f; stroke:none;" d="M136 171L137 172L136 171z"/>
<path style="fill:#431f28; stroke:none;" d="M141 171L142 172L141 171z"/>
<path style="fill:#bd939e; stroke:none;" d="M191 171L192 172L191 171z"/>
<path style="fill:#91757c; stroke:none;" d="M198 171L199 172L198 171z"/>
<path style="fill:#bd939e; stroke:none;" d="M137 172L138 173L137 172z"/>
<path style="fill:#42222a; stroke:none;" d="M138 172L139 173L138 172z"/>
<path style="fill:#6d595d; stroke:none;" d="M143 172L144 173L143 172z"/>
<path style="fill:#88616b; stroke:none;" d="M190 172L191 173L190 172z"/>
<path style="fill:#4b2b33; stroke:none;" d="M195 172L196 173L195 172z"/>
<path style="fill:#a48089; stroke:none;" d="M139 173L140 174L139 173z"/>
<path style="fill:#54343c; stroke:none;" d="M189 173L190 174L189 173z"/>
<path style="fill:#ab868f; stroke:none;" d="M194 173L195 174L194 173z"/>
<path style="fill:#6c4952; stroke:none;" d="M141 174L142 175L141 174z"/>
<path style="fill:#734f58; stroke:none;" d="M192 174L193 175L192 174z"/>
<path style="fill:#b2838f; stroke:none;" d="M142 175L143 176L142 175z"/>
<path style="fill:#a3878e; stroke:none;" d="M191 175L192 176L191 175z"/>
<path style="fill:#43262d; stroke:none;" d="M185 177L186 178L185 177z"/>
<path style="fill:#aa7482; stroke:none;" d="M149 178L150 179L149 178z"/>
<path style="fill:#a2737f; stroke:none;" d="M184 178L185 179L184 178z"/>
<path style="fill:#a67582; stroke:none;" d="M146 179L147 180L146 179z"/>
<path style="fill:#784453; stroke:none;" d="M147 179L148 180L147 179z"/>
<path style="fill:#562c37; stroke:none;" d="M186 179L187 180L186 179z"/>
<path style="fill:#a77a86; stroke:none;" d="M187 179L188 180L187 179z"/>
<path style="fill:#f6d7e0; stroke:none;" d="M57 183L57 190C58.0595 187.466 58.0595 185.534 57 183z"/>
<path style="fill:#efd3d9; stroke:none;" d="M276 183L276 189C276.951 186.715 276.951 185.285 276 183z"/>
<path style="fill:#ffffff; stroke:none;" d="M56 189L57 190L56 189z"/>
<path style="fill:#ffa5b6; stroke:none;" d="M162 206C168.485 207.921 173.828 208.753 180 212C176.78 205.838 168.177 201.78 162 206z"/>
<path style="fill:#ef6370; stroke:none;" d="M163.667 207.333C163.222 207.778 164.278 207.722 164.333 207.667C164.778 207.222 163.722 207.278 163.667 207.333z"/>
<path style="fill:#d83142; stroke:none;" d="M165 207C166.769 207.779 168.036 207.912 170 208C168.231 207.221 166.964 207.088 165 207z"/>
<path style="fill:#ef6370; stroke:none;" d="M170.667 207.333C170.222 207.778 171.278 207.722 171.333 207.667C171.778 207.222 170.722 207.278 170.667 207.333z"/>
<path style="fill:#ef1616; stroke:none;" d="M153 217C156.041 215.081 162.504 212.486 163 209L173 209C173.359 212.015 175.075 212.3 178 213C176.452 211.333 175.099 209.979 174 208C165.105 208 157.318 207.819 153 217z"/>
<path style="fill:#ff0000; stroke:none;" d="M163 209C163 212.334 157.371 212.629 155 215C148.888 221.112 145.539 232.206 148 240L145 239C145 249.611 144.905 259.595 146.83 270C147.768 275.07 148.542 281.126 154 283C155.772 298.878 181.096 299.359 182 283C189.734 280.349 185 272.633 184 267L186 267L186 272L189 272C190.882 260.887 191 250.33 191 239L188 240C189.897 232.945 187.588 222.27 182.667 216.611C180.04 213.591 173.568 212.901 173 209L163 209z"/>
<path style="fill:#e72a2f; stroke:none;" d="M174 209C176.239 212.302 179.728 214.73 183 217C181.03 212.814 178.38 210.49 174 209z"/>
<path style="fill:#f61100; stroke:none;" d="M165 211C166.975 214.472 169.025 214.472 171 211C168.768 210.637 167.232 210.637 165 211z"/>
<path style="fill:#ff7884; stroke:none;" d="M152 216L153 217L152 216z"/>
<path style="fill:#ff7783; stroke:none;" d="M183 216L184 217L183 216z"/>
<path style="fill:#ee171b; stroke:none;" d="M152 217C150.817 219.328 149.777 221.511 149 224C151.256 221.853 152.728 220.133 152 217z"/>
<path style="fill:#f56269; stroke:none;" d="M151 218L152 219L151 218z"/>
<path style="fill:#f91200; stroke:none;" d="M154 218C154.685 223.18 155.999 227.644 156 233C157.997 229.672 158.287 225.787 159 222C157.72 220.663 156.97 219.6 156 218L154 218z"/>
<path style="fill:#f81303; stroke:none;" d="M180 218C179.03 219.6 178.28 220.663 177 222L179 233C180.816 228.672 181.032 222.715 182 218L180 218z"/>
<path style="fill:#f7626a; stroke:none;" d="M184 218L185 219L184 218z"/>
<path style="fill:#e01c21; stroke:none;" d="M184 219C184.547 220.875 185.11 222.255 186 224C186.375 221.581 185.693 220.782 184 219z"/>
<path style="fill:#feaabc; stroke:none;" d="M185 219C187.845 225.844 191.613 232.462 192 240C194.651 233.666 190.66 222.634 185 219z"/>
<path style="fill:#ef1e1f; stroke:none;" d="M148 224L146 233C148.234 230.19 149.33 227.443 148 224z"/>
<path style="fill:#f11a19; stroke:none;" d="M187 224C187.291 229.681 189.053 234.242 188 240C189.797 240 189.522 239.986 191 239L191 264C192.552 260.301 192 255.983 192 252C192 242.49 192.011 232.454 187 224z"/>
<path style="fill:#d53a3d; stroke:none;" d="M147.333 226.667C147.278 226.722 147.222 227.778 147.667 227.333C147.722 227.278 147.778 226.222 147.333 226.667z"/>
<path style="fill:#d83c3f; stroke:none;" d="M188.333 226.667C188.278 226.722 188.222 227.778 188.667 227.333C188.722 227.278 188.778 226.222 188.333 226.667z"/>
<path style="fill:#ff9197; stroke:none;" d="M145.333 230.667C145.278 230.722 145.222 231.778 145.667 231.333C145.722 231.278 145.778 230.222 145.333 230.667z"/>
<path style="fill:#ffa7b2; stroke:none;" d="M144 231C141.025 240.79 140.131 251.934 142 262C144.386 256.313 142.562 249.089 143.171 243C143.574 238.967 145.398 234.899 144 231z"/>
<path style="fill:#e74d4f; stroke:none;" d="M145.333 232.667C145.278 232.722 145.222 233.778 145.667 233.333C145.722 233.278 145.778 232.222 145.333 232.667z"/>
<path style="fill:#e94f51; stroke:none;" d="M190.333 232.667C190.278 232.722 190.222 233.778 190.667 233.333C190.722 233.278 190.778 232.222 190.333 232.667z"/>
<path style="fill:#f90e20; stroke:none;" d="M145 234C145.221 237.007 145.455 238.365 148 240C147.345 237.463 146.724 235.953 145 234z"/>
<path style="fill:#ff8385; stroke:none;" d="M191.333 234.667C191.278 234.722 191.222 235.778 191.667 235.333C191.722 235.278 191.778 234.222 191.333 234.667z"/>
<path style="fill:#ff6567; stroke:none;" d="M144.333 235.667C144.278 235.722 144.222 236.778 144.667 236.333C144.722 236.278 144.778 235.222 144.333 235.667z"/>
<path style="fill:#f74a4b; stroke:none;" d="M191.333 236.667C191.278 236.722 191.222 237.778 191.667 237.333C191.722 237.278 191.778 236.222 191.333 236.667z"/>
<path style="fill:#f11a19; stroke:none;" d="M144 237L144 264C146.541 257.945 146.541 243.055 144 237z"/>
<path style="fill:#f8b0c4; stroke:none;" d="M137 240C135.78 246.675 138.978 249.784 139.856 256C140.685 261.872 138.167 267.216 138 273L141 273L141 266L143 266L143 276C146.391 276 146.921 281.983 147 285C149.89 285 150.313 287.388 151 290L146 288L144 294C145.923 293.098 145.999 292.924 147 291C148.986 294.19 156.251 305.069 160 302C166.136 303.55 171.764 301.611 178 304C180.474 298.922 185.578 296.18 188 291L184 291C184.595 287.431 187.451 286.098 189 283C190.265 280.47 190.494 277.51 192 275L193 276L193 265C194.49 267.78 194.911 269.848 195 273L198 273C197.871 268.533 196.079 264.442 196.033 260C195.965 253.33 198 246.801 198 240L196 240L196 246L194 245C194 249.25 194.634 253.791 194.186 258C192.793 271.102 184.757 293.818 170 296.594C163.497 297.818 157.263 292.776 153.529 287.996C145.067 277.162 141.001 261.504 141 248L138 249C137.998 245.874 138.213 242.89 137 240z"/>
<path style="fill:#ff8183; stroke:none;" d="M143.333 240.667C143.278 240.722 143.222 241.778 143.667 241.333C143.722 241.278 143.778 240.222 143.333 240.667z"/>
<path style="fill:#ff8586; stroke:none;" d="M192.333 240.667C192.278 240.722 192.222 241.778 192.667 241.333C192.722 241.278 192.778 240.222 192.333 240.667z"/>
<path style="fill:#ffa4ac; stroke:none;" d="M193 240L193 262C195.802 257.229 195.133 245.083 193 240z"/>
<path style="fill:#e34f52; stroke:none;" d="M143 242L143 246C143.71 244.241 143.71 243.759 143 242z"/>
<path style="fill:#e25254; stroke:none;" d="M192 242L192 248C192.951 245.715 192.951 244.285 192 242z"/>
<path style="fill:#d83439; stroke:none;" d="M143 246L143 257C144.431 253.59 144.431 249.41 143 246z"/>
<path style="fill:#f0d1d8; stroke:none;" d="M41 248L41 254C41.9511 251.715 41.9511 250.285 41 248z"/>
<path style="fill:#d73338; stroke:none;" d="M192 248L192 256C193.161 253.23 193.161 250.77 192 248z"/>
<path style="fill:#f6d0dc; stroke:none;" d="M290 248L290 254C290.951 251.715 290.951 250.285 290 248z"/>
<path style="fill:#f6d6df; stroke:none;" d="M42 256L42 259C42.6961 257.446 42.6961 257.554 42 256z"/>
<path style="fill:#e35558; stroke:none;" d="M192 256L192 261C192.83 258.969 192.83 258.03 192 256z"/>
<path style="fill:#f7d5e0; stroke:none;" d="M289 256L289 259C289.696 257.446 289.696 257.554 289 256z"/>
<path style="fill:#e34f54; stroke:none;" d="M143 257L143 261C143.71 259.241 143.71 258.759 143 257z"/>
<path style="fill:#ff838c; stroke:none;" d="M143 261L143 264C143.696 262.446 143.696 262.554 143 261z"/>
<path style="fill:#ff848a; stroke:none;" d="M192 261L192 264C192.696 262.446 192.696 262.554 192 261z"/>
<path style="fill:#ffffff; stroke:none;" d="M288 262L289 263L288 262z"/>
<path style="fill:#ee1f29; stroke:none;" d="M144 264L146 274C147.578 270.201 146.765 266.951 144 264z"/>
<path style="fill:#e62523; stroke:none;" d="M191 264C189.443 268.264 188.571 272.503 188 277C190.327 273.652 192.175 267.97 191 264z"/>
<path style="fill:#ff8e98; stroke:none;" d="M144 267C144.094 269.205 144.356 270.894 145 273C145.552 270.641 145.138 269.146 144 267z"/>
<path style="fill:#f21000; stroke:none;" d="M184 267C184.398 270.894 185.935 274.265 187 278C188.063 276.031 188.532 274.202 189 272C186.717 270.554 186.418 269.689 186 267L184 267z"/>
<path style="fill:#ff8688; stroke:none;" d="M191.333 267.667C191.278 267.722 191.222 268.778 191.667 268.333C191.722 268.278 191.778 267.222 191.333 267.667z"/>
<path style="fill:#fa656a; stroke:none;" d="M190.333 270.667C190.278 270.722 190.222 271.778 190.667 271.333C190.722 271.278 190.778 270.222 190.333 270.667z"/>
<path style="fill:#ff8187; stroke:none;" d="M146.333 274.667C146.278 274.722 146.222 275.778 146.667 275.333C146.722 275.278 146.778 274.222 146.333 274.667z"/>
<path style="fill:#da2728; stroke:none;" d="M147 274L147 277C147.696 275.446 147.696 275.554 147 274z"/>
<path style="fill:#e85c6b; stroke:none;" d="M147 277L148 278L147 277M188 277L189 278L188 277z"/>
<path style="fill:#ed424f; stroke:none;" d="M148.333 278.667C148.278 278.722 148.222 279.778 148.667 279.333C148.722 279.278 148.778 278.222 148.333 278.667z"/>
<path style="fill:#f61510; stroke:none;" d="M149 278C149.375 281.284 149.807 282.881 153 284C153.176 285.878 153.438 287.199 154 289C154.507 286.92 154.237 285.162 154 283C151.675 281.688 150.576 280.147 149 278z"/>
<path style="fill:#ee4450; stroke:none;" d="M187.333 278.667C187.278 278.722 187.222 279.778 187.667 279.333C187.722 279.278 187.778 278.222 187.333 278.667z"/>
<path style="fill:#f61510; stroke:none;" d="M186 279C184.782 281.118 184.133 281.845 182 283L182 288C182.683 286.494 182.826 285.685 183 284C185.749 283.042 186.801 281.908 186 279z"/>
<path style="fill:#f22927; stroke:none;" d="M151 284L152 287C152.685 285.752 152.749 285.452 153 284L151 284z"/>
<path style="fill:#dd2323; stroke:none;" d="M183 284L183 287C184.015 285.861 184.309 285.388 185 284L183 284z"/>
<path style="fill:#f5676c; stroke:none;" d="M151 285L152 286L151 285z"/>
<path style="fill:#fa6c71; stroke:none;" d="M184 285L185 286L184 285z"/>
<path style="fill:#ee6360; stroke:none;" d="M153 288L154 289L153 288z"/>
<path style="fill:#e7504f; stroke:none;" d="M181 288L181 290C182.635 289.455 182.455 289.635 183 288L181 288z"/>
<path style="fill:#e22a2f; stroke:none;" d="M154 289C155.836 291.447 157.237 292.701 160 294C158.278 291.333 156.98 290.099 154 289z"/>
<path style="fill:#e12a2c; stroke:none;" d="M178 293C179.457 291.897 179.897 291.457 181 290C178.636 290.482 178.482 290.636 178 293z"/>
<path style="fill:#ee565f; stroke:none;" d="M177 293L178 294L177 293z"/>
<path style="fill:#ec3231; stroke:none;" d="M160.667 294.333C160.222 294.778 161.278 294.722 161.333 294.667C161.778 294.222 160.722 294.278 160.667 294.333z"/>
<path style="fill:#eb4849; stroke:none;" d="M174.667 294.333C174.222 294.778 175.278 294.722 175.333 294.667C175.778 294.222 174.722 294.278 174.667 294.333z"/>
<path style="fill:#f41f1d; stroke:none;" d="M162 295C165.697 296.552 170.017 296 174 296C170.303 294.448 165.983 295 162 295z"/>
<path style="fill:#ea6167; stroke:none;" d="M164.667 296.333C164.222 296.778 165.278 296.722 165.333 296.667C165.778 296.222 164.722 296.278 164.667 296.333z"/>
<path style="fill:#dc3335; stroke:none;" d="M166 296C167.506 296.683 168.315 296.826 170 297C168.494 296.317 167.685 296.174 166 296z"/>
<path style="fill:#f77f86; stroke:none;" d="M170.667 296.333C170.222 296.778 171.278 296.722 171.333 296.667C171.778 296.222 170.722 296.278 170.667 296.333z"/>
<path style="fill:#ffffff; stroke:none;" d="M232 314L233 315L232 314z"/>
<path style="fill:#e5bcc8; stroke:none;" d="M149 326C152.959 327.661 157.74 327 162 327L185 327C181.041 325.339 176.26 326 172 326L149 326z"/>
</svg>
